<svg width="183" height="151" viewBox="0 0 183 151" fill="none" xmlns="http://www.w3.org/2000/svg">
<g clip-path="url(#clip0_1_156)">
<path d="M64.9295 23.9509C67.0996 23.9509 68.8589 25.7102 68.8589 27.8804C68.8589 30.0505 67.0996 31.8098 64.9295 31.8098C62.7593 31.8098 61 30.0505 61 27.8804C61 25.7102 62.7593 23.9509 64.9295 23.9509Z" fill="#724EDE"/>
<path d="M75.7822 23.9509C77.9524 23.9509 79.7117 25.7102 79.7117 27.8804C79.7117 30.0505 77.9524 31.8098 75.7822 31.8098C73.6121 31.8098 71.8528 30.0505 71.8528 27.8804C71.8528 25.7102 73.6121 23.9509 75.7822 23.9509Z" fill="#724EDE"/>
<path d="M86.6349 23.9509C88.8051 23.9509 90.5644 25.7102 90.5644 27.8804C90.5644 30.0505 88.8051 31.8098 86.6349 31.8098C84.4648 31.8098 82.7055 30.0505 82.7055 27.8804C82.7055 25.7102 84.4648 23.9509 86.6349 23.9509Z" fill="#724EDE"/>
<path d="M96.3651 23.9509C98.5352 23.9509 100.295 25.7102 100.295 27.8804C100.295 30.0505 98.5352 31.8098 96.3651 31.8098C94.1949 31.8098 92.4356 30.0505 92.4356 27.8804C92.4356 25.7102 94.1949 23.9509 96.3651 23.9509Z" fill="#724EDE"/>
<path d="M107.217 23.9509C109.388 23.9509 111.147 25.7102 111.147 27.8804C111.147 30.0505 109.388 31.8098 107.217 31.8098C105.047 31.8098 103.288 30.0505 103.288 27.8804C103.288 25.7102 105.047 23.9509 107.217 23.9509Z" fill="#724EDE"/>
<path d="M118.07 23.9509C120.241 23.9509 122 25.7102 122 27.8804C122 30.0505 120.241 31.8098 118.07 31.8098C115.9 31.8098 114.141 30.0505 114.141 27.8804C114.141 25.7102 115.9 23.9509 118.07 23.9509Z" fill="#724EDE"/>
<path d="M64.9295 11.9755C67.0996 11.9755 68.8589 13.7348 68.8589 15.905C68.8589 18.0751 67.0996 19.8344 64.9295 19.8344C62.7593 19.8344 61 18.0751 61 15.905C61 13.7348 62.7593 11.9755 64.9295 11.9755Z" fill="#724EDE"/>
<path d="M75.7822 11.9755C77.9524 11.9755 79.7117 13.7348 79.7117 15.905C79.7117 18.0751 77.9524 19.8344 75.7822 19.8344C73.6121 19.8344 71.8528 18.0751 71.8528 15.905C71.8528 13.7348 73.6121 11.9755 75.7822 11.9755Z" fill="#724EDE"/>
<path d="M86.6349 11.9755C88.8051 11.9755 90.5644 13.7348 90.5644 15.905C90.5644 18.0751 88.8051 19.8344 86.6349 19.8344C84.4648 19.8344 82.7055 18.0751 82.7055 15.905C82.7055 13.7348 84.4648 11.9755 86.6349 11.9755Z" fill="#724EDE"/>
<path d="M96.3651 11.9755C98.5352 11.9755 100.295 13.7348 100.295 15.905C100.295 18.0751 98.5352 19.8344 96.3651 19.8344C94.1949 19.8344 92.4356 18.0751 92.4356 15.905C92.4356 13.7348 94.1949 11.9755 96.3651 11.9755Z" fill="#724EDE"/>
<path d="M107.217 11.9755C109.388 11.9755 111.147 13.7348 111.147 15.905C111.147 18.0751 109.388 19.8344 107.217 19.8344C105.047 19.8344 103.288 18.0751 103.288 15.905C103.288 13.7348 105.047 11.9755 107.217 11.9755Z" fill="#724EDE"/>
<path d="M118.07 11.9755C120.241 11.9755 122 13.7348 122 15.905C122 18.0751 120.241 19.8344 118.07 19.8344C115.9 19.8344 114.141 18.0751 114.141 15.905C114.141 13.7348 115.9 11.9755 118.07 11.9755Z" fill="#724EDE"/>
<path d="M64.9295 -1.33514e-05C67.0996 -1.33514e-05 68.8589 1.75926 68.8589 3.92944C68.8589 6.09961 67.0996 7.85889 64.9295 7.85889C62.7593 7.85889 61 6.09961 61 3.92944C61 1.75926 62.7593 -1.33514e-05 64.9295 -1.33514e-05Z" fill="#724EDE"/>
<path d="M75.7822 -1.33514e-05C77.9524 -1.33514e-05 79.7117 1.75926 79.7117 3.92944C79.7117 6.09961 77.9524 7.85889 75.7822 7.85889C73.6121 7.85889 71.8528 6.09961 71.8528 3.92944C71.8528 1.75926 73.6121 -1.33514e-05 75.7822 -1.33514e-05Z" fill="#724EDE"/>
<path d="M86.6349 -1.33514e-05C88.8051 -1.33514e-05 90.5644 1.75926 90.5644 3.92944C90.5644 6.09961 88.8051 7.85889 86.6349 7.85889C84.4648 7.85889 82.7055 6.09961 82.7055 3.92944C82.7055 1.75926 84.4648 -1.33514e-05 86.6349 -1.33514e-05Z" fill="#724EDE"/>
<path d="M96.3651 -1.33514e-05C98.5352 -1.33514e-05 100.295 1.75926 100.295 3.92944C100.295 6.09961 98.5352 7.85889 96.3651 7.85889C94.1949 7.85889 92.4356 6.09961 92.4356 3.92944C92.4356 1.75926 94.1949 -1.33514e-05 96.3651 -1.33514e-05Z" fill="#724EDE"/>
<path d="M107.217 -1.33514e-05C109.388 -1.33514e-05 111.147 1.75926 111.147 3.92944C111.147 6.09961 109.388 7.85889 107.217 7.85889C105.047 7.85889 103.288 6.09961 103.288 3.92944C103.288 1.75926 105.047 -1.33514e-05 107.217 -1.33514e-05Z" fill="#724EDE"/>
<path d="M118.07 -1.33514e-05C120.241 -1.33514e-05 122 1.75926 122 3.92944C122 6.09961 120.241 7.85889 118.07 7.85889C115.9 7.85889 114.141 6.09961 114.141 3.92944C114.141 1.75926 115.9 -1.33514e-05 118.07 -1.33514e-05Z" fill="#724EDE"/>
<path d="M3.92945 83.9509C6.09963 83.9509 7.8589 85.7102 7.8589 87.8804C7.8589 90.0505 6.09963 91.8098 3.92945 91.8098C1.75927 91.8098 0 90.0505 0 87.8804C0 85.7102 1.75927 83.9509 3.92945 83.9509Z" fill="#724EDE"/>
<path d="M14.7822 83.9509C16.9524 83.9509 18.7117 85.7102 18.7117 87.8804C18.7117 90.0505 16.9524 91.8098 14.7822 91.8098C12.6121 91.8098 10.8528 90.0505 10.8528 87.8804C10.8528 85.7102 12.6121 83.9509 14.7822 83.9509Z" fill="#724EDE"/>
<path d="M25.6349 83.9509C27.8051 83.9509 29.5644 85.7102 29.5644 87.8804C29.5644 90.0505 27.8051 91.8098 25.6349 91.8098C23.4648 91.8098 21.7055 90.0505 21.7055 87.8804C21.7055 85.7102 23.4648 83.9509 25.6349 83.9509Z" fill="#724EDE"/>
<path d="M35.3651 83.9509C37.5352 83.9509 39.2945 85.7102 39.2945 87.8804C39.2945 90.0505 37.5352 91.8098 35.3651 91.8098C33.1949 91.8098 31.4356 90.0505 31.4356 87.8804C31.4356 85.7102 33.1949 83.9509 35.3651 83.9509Z" fill="#724EDE"/>
<path d="M46.2177 83.9509C48.3879 83.9509 50.1472 85.7102 50.1472 87.8804C50.1472 90.0505 48.3879 91.8098 46.2177 91.8098C44.0476 91.8098 42.2883 90.0505 42.2883 87.8804C42.2883 85.7102 44.0476 83.9509 46.2177 83.9509Z" fill="#724EDE"/>
<path d="M57.0706 83.9509C59.2407 83.9509 61 85.7102 61 87.8804C61 90.0505 59.2407 91.8098 57.0706 91.8098C54.9004 91.8098 53.1411 90.0505 53.1411 87.8804C53.1411 85.7102 54.9004 83.9509 57.0706 83.9509Z" fill="#724EDE"/>
<path d="M3.92945 71.9755C6.09963 71.9755 7.8589 73.7348 7.8589 75.905C7.8589 78.0751 6.09963 79.8344 3.92945 79.8344C1.75927 79.8344 0 78.0751 0 75.905C0 73.7348 1.75927 71.9755 3.92945 71.9755Z" fill="#724EDE"/>
<path d="M14.7822 71.9755C16.9524 71.9755 18.7117 73.7348 18.7117 75.905C18.7117 78.0751 16.9524 79.8344 14.7822 79.8344C12.6121 79.8344 10.8528 78.0751 10.8528 75.905C10.8528 73.7348 12.6121 71.9755 14.7822 71.9755Z" fill="#724EDE"/>
<path d="M25.6349 71.9755C27.8051 71.9755 29.5644 73.7348 29.5644 75.905C29.5644 78.0751 27.8051 79.8344 25.6349 79.8344C23.4648 79.8344 21.7055 78.0751 21.7055 75.905C21.7055 73.7348 23.4648 71.9755 25.6349 71.9755Z" fill="#724EDE"/>
<path d="M35.3651 71.9755C37.5352 71.9755 39.2945 73.7348 39.2945 75.905C39.2945 78.0751 37.5352 79.8344 35.3651 79.8344C33.1949 79.8344 31.4356 78.0751 31.4356 75.905C31.4356 73.7348 33.1949 71.9755 35.3651 71.9755Z" fill="#724EDE"/>
<path d="M46.2177 71.9755C48.3879 71.9755 50.1472 73.7348 50.1472 75.905C50.1472 78.0751 48.3879 79.8344 46.2177 79.8344C44.0476 79.8344 42.2883 78.0751 42.2883 75.905C42.2883 73.7348 44.0476 71.9755 46.2177 71.9755Z" fill="#724EDE"/>
<path d="M57.0706 71.9755C59.2407 71.9755 61 73.7348 61 75.905C61 78.0751 59.2407 79.8344 57.0706 79.8344C54.9004 79.8344 53.1411 78.0751 53.1411 75.905C53.1411 73.7348 54.9004 71.9755 57.0706 71.9755Z" fill="#724EDE"/>
<path d="M3.92945 60C6.09963 60 7.8589 61.7593 7.8589 63.9294C7.8589 66.0996 6.09963 67.8589 3.92945 67.8589C1.75927 67.8589 0 66.0996 0 63.9294C0 61.7593 1.75927 60 3.92945 60Z" fill="#724EDE"/>
<path d="M14.7822 60C16.9524 60 18.7117 61.7593 18.7117 63.9294C18.7117 66.0996 16.9524 67.8589 14.7822 67.8589C12.6121 67.8589 10.8528 66.0996 10.8528 63.9294C10.8528 61.7593 12.6121 60 14.7822 60Z" fill="#724EDE"/>
<path d="M25.6349 60C27.8051 60 29.5644 61.7593 29.5644 63.9294C29.5644 66.0996 27.8051 67.8589 25.6349 67.8589C23.4648 67.8589 21.7055 66.0996 21.7055 63.9294C21.7055 61.7593 23.4648 60 25.6349 60Z" fill="#724EDE"/>
<path d="M35.3651 60C37.5352 60 39.2945 61.7593 39.2945 63.9294C39.2945 66.0996 37.5352 67.8589 35.3651 67.8589C33.1949 67.8589 31.4356 66.0996 31.4356 63.9294C31.4356 61.7593 33.1949 60 35.3651 60Z" fill="#724EDE"/>
<path d="M46.2177 60C48.3879 60 50.1472 61.7593 50.1472 63.9294C50.1472 66.0996 48.3879 67.8589 46.2177 67.8589C44.0476 67.8589 42.2883 66.0996 42.2883 63.9294C42.2883 61.7593 44.0476 60 46.2177 60Z" fill="#724EDE"/>
<path d="M57.0706 60C59.2407 60 61 61.7593 61 63.9294C61 66.0996 59.2407 67.8589 57.0706 67.8589C54.9004 67.8589 53.1411 66.0996 53.1411 63.9294C53.1411 61.7593 54.9004 60 57.0706 60Z" fill="#724EDE"/>
<path d="M125.929 83.9509C128.1 83.9509 129.859 85.7102 129.859 87.8804C129.859 90.0505 128.1 91.8098 125.929 91.8098C123.759 91.8098 122 90.0505 122 87.8804C122 85.7102 123.759 83.9509 125.929 83.9509Z" fill="#724EDE"/>
<path d="M136.782 83.9509C138.953 83.9509 140.712 85.7102 140.712 87.8804C140.712 90.0505 138.953 91.8098 136.782 91.8098C134.612 91.8098 132.853 90.0505 132.853 87.8804C132.853 85.7102 134.612 83.9509 136.782 83.9509Z" fill="#724EDE"/>
<path d="M147.635 83.9509C149.806 83.9509 151.565 85.7102 151.565 87.8804C151.565 90.0505 149.806 91.8098 147.635 91.8098C145.465 91.8098 143.706 90.0505 143.706 87.8804C143.706 85.7102 145.465 83.9509 147.635 83.9509Z" fill="#724EDE"/>
<path d="M157.365 83.9509C159.536 83.9509 161.295 85.7102 161.295 87.8804C161.295 90.0505 159.536 91.8098 157.365 91.8098C155.195 91.8098 153.436 90.0505 153.436 87.8804C153.436 85.7102 155.195 83.9509 157.365 83.9509Z" fill="#724EDE"/>
<path d="M168.217 83.9509C170.388 83.9509 172.147 85.7102 172.147 87.8804C172.147 90.0505 170.388 91.8098 168.217 91.8098C166.047 91.8098 164.288 90.0505 164.288 87.8804C164.288 85.7102 166.047 83.9509 168.217 83.9509Z" fill="#724EDE"/>
<path d="M179.07 83.9509C181.241 83.9509 183 85.7102 183 87.8804C183 90.0505 181.241 91.8098 179.07 91.8098C176.9 91.8098 175.141 90.0505 175.141 87.8804C175.141 85.7102 176.9 83.9509 179.07 83.9509Z" fill="#724EDE"/>
<path d="M125.929 71.9755C128.1 71.9755 129.859 73.7348 129.859 75.905C129.859 78.0751 128.1 79.8344 125.929 79.8344C123.759 79.8344 122 78.0751 122 75.905C122 73.7348 123.759 71.9755 125.929 71.9755Z" fill="#724EDE"/>
<path d="M136.782 71.9755C138.953 71.9755 140.712 73.7348 140.712 75.905C140.712 78.0751 138.953 79.8344 136.782 79.8344C134.612 79.8344 132.853 78.0751 132.853 75.905C132.853 73.7348 134.612 71.9755 136.782 71.9755Z" fill="#724EDE"/>
<path d="M147.635 71.9755C149.806 71.9755 151.565 73.7348 151.565 75.905C151.565 78.0751 149.806 79.8344 147.635 79.8344C145.465 79.8344 143.706 78.0751 143.706 75.905C143.706 73.7348 145.465 71.9755 147.635 71.9755Z" fill="#724EDE"/>
<path d="M157.365 71.9755C159.536 71.9755 161.295 73.7348 161.295 75.905C161.295 78.0751 159.536 79.8344 157.365 79.8344C155.195 79.8344 153.436 78.0751 153.436 75.905C153.436 73.7348 155.195 71.9755 157.365 71.9755Z" fill="#724EDE"/>
<path d="M168.217 71.9755C170.388 71.9755 172.147 73.7348 172.147 75.905C172.147 78.0751 170.388 79.8344 168.217 79.8344C166.047 79.8344 164.288 78.0751 164.288 75.905C164.288 73.7348 166.047 71.9755 168.217 71.9755Z" fill="#724EDE"/>
<path d="M179.07 71.9755C181.241 71.9755 183 73.7348 183 75.905C183 78.0751 181.241 79.8344 179.07 79.8344C176.9 79.8344 175.141 78.0751 175.141 75.905C175.141 73.7348 176.9 71.9755 179.07 71.9755Z" fill="#724EDE"/>
<path d="M125.929 60C128.1 60 129.859 61.7593 129.859 63.9294C129.859 66.0996 128.1 67.8589 125.929 67.8589C123.759 67.8589 122 66.0996 122 63.9294C122 61.7593 123.759 60 125.929 60Z" fill="#724EDE"/>
<path d="M136.782 60C138.953 60 140.712 61.7593 140.712 63.9294C140.712 66.0996 138.953 67.8589 136.782 67.8589C134.612 67.8589 132.853 66.0996 132.853 63.9294C132.853 61.7593 134.612 60 136.782 60Z" fill="#724EDE"/>
<path d="M147.635 60C149.806 60 151.565 61.7593 151.565 63.9294C151.565 66.0996 149.806 67.8589 147.635 67.8589C145.465 67.8589 143.706 66.0996 143.706 63.9294C143.706 61.7593 145.465 60 147.635 60Z" fill="#724EDE"/>
<path d="M157.365 60C159.536 60 161.295 61.7593 161.295 63.9294C161.295 66.0996 159.536 67.8589 157.365 67.8589C155.195 67.8589 153.436 66.0996 153.436 63.9294C153.436 61.7593 155.195 60 157.365 60Z" fill="#724EDE"/>
<path d="M168.217 60C170.388 60 172.147 61.7593 172.147 63.9294C172.147 66.0996 170.388 67.8589 168.217 67.8589C166.047 67.8589 164.288 66.0996 164.288 63.9294C164.288 61.7593 166.047 60 168.217 60Z" fill="#724EDE"/>
<path d="M179.07 60C181.241 60 183 61.7593 183 63.9294C183 66.0996 181.241 67.8589 179.07 67.8589C176.9 67.8589 175.141 66.0996 175.141 63.9294C175.141 61.7593 176.9 60 179.07 60Z" fill="#724EDE"/>
<path d="M63.9295 142.951C66.0996 142.951 67.8589 144.71 67.8589 146.881C67.8589 149.051 66.0996 150.81 63.9295 150.81C61.7593 150.81 60 149.051 60 146.881C60 144.71 61.7593 142.951 63.9295 142.951Z" fill="#724EDE"/>
<path d="M74.7822 142.951C76.9524 142.951 78.7117 144.71 78.7117 146.881C78.7117 149.051 76.9524 150.81 74.7822 150.81C72.6121 150.81 70.8528 149.051 70.8528 146.881C70.8528 144.71 72.6121 142.951 74.7822 142.951Z" fill="#724EDE"/>
<path d="M85.6349 142.951C87.8051 142.951 89.5644 144.71 89.5644 146.881C89.5644 149.051 87.8051 150.81 85.6349 150.81C83.4648 150.81 81.7055 149.051 81.7055 146.881C81.7055 144.71 83.4648 142.951 85.6349 142.951Z" fill="#724EDE"/>
<path d="M95.3651 142.951C97.5352 142.951 99.2945 144.71 99.2945 146.881C99.2945 149.051 97.5352 150.81 95.3651 150.81C93.1949 150.81 91.4356 149.051 91.4356 146.881C91.4356 144.71 93.1949 142.951 95.3651 142.951Z" fill="#724EDE"/>
<path d="M106.217 142.951C108.388 142.951 110.147 144.71 110.147 146.881C110.147 149.051 108.388 150.81 106.217 150.81C104.047 150.81 102.288 149.051 102.288 146.881C102.288 144.71 104.047 142.951 106.217 142.951Z" fill="#724EDE"/>
<path d="M117.07 142.951C119.241 142.951 121 144.71 121 146.881C121 149.051 119.241 150.81 117.07 150.81C114.9 150.81 113.141 149.051 113.141 146.881C113.141 144.71 114.9 142.951 117.07 142.951Z" fill="#724EDE"/>
<path d="M63.9295 130.975C66.0996 130.975 67.8589 132.734 67.8589 134.905C67.8589 137.075 66.0996 138.834 63.9295 138.834C61.7593 138.834 60 137.075 60 134.905C60 132.734 61.7593 130.975 63.9295 130.975Z" fill="#724EDE"/>
<path d="M74.7822 130.975C76.9524 130.975 78.7117 132.734 78.7117 134.905C78.7117 137.075 76.9524 138.834 74.7822 138.834C72.6121 138.834 70.8528 137.075 70.8528 134.905C70.8528 132.734 72.6121 130.975 74.7822 130.975Z" fill="#724EDE"/>
<path d="M85.6349 130.975C87.8051 130.975 89.5644 132.734 89.5644 134.905C89.5644 137.075 87.8051 138.834 85.6349 138.834C83.4648 138.834 81.7055 137.075 81.7055 134.905C81.7055 132.734 83.4648 130.975 85.6349 130.975Z" fill="#724EDE"/>
<path d="M95.3651 130.975C97.5352 130.975 99.2945 132.734 99.2945 134.905C99.2945 137.075 97.5352 138.834 95.3651 138.834C93.1949 138.834 91.4356 137.075 91.4356 134.905C91.4356 132.734 93.1949 130.975 95.3651 130.975Z" fill="#724EDE"/>
<path d="M106.217 130.975C108.388 130.975 110.147 132.734 110.147 134.905C110.147 137.075 108.388 138.834 106.217 138.834C104.047 138.834 102.288 137.075 102.288 134.905C102.288 132.734 104.047 130.975 106.217 130.975Z" fill="#724EDE"/>
<path d="M117.07 130.975C119.241 130.975 121 132.734 121 134.905C121 137.075 119.241 138.834 117.07 138.834C114.9 138.834 113.141 137.075 113.141 134.905C113.141 132.734 114.9 130.975 117.07 130.975Z" fill="#724EDE"/>
<path d="M63.9295 119C66.0996 119 67.8589 120.759 67.8589 122.93C67.8589 125.1 66.0996 126.859 63.9295 126.859C61.7593 126.859 60 125.1 60 122.93C60 120.759 61.7593 119 63.9295 119Z" fill="#724EDE"/>
<path d="M74.7822 119C76.9524 119 78.7117 120.759 78.7117 122.93C78.7117 125.1 76.9524 126.859 74.7822 126.859C72.6121 126.859 70.8528 125.1 70.8528 122.93C70.8528 120.759 72.6121 119 74.7822 119Z" fill="#724EDE"/>
<path d="M85.6349 119C87.8051 119 89.5644 120.759 89.5644 122.93C89.5644 125.1 87.8051 126.859 85.6349 126.859C83.4648 126.859 81.7055 125.1 81.7055 122.93C81.7055 120.759 83.4648 119 85.6349 119Z" fill="#724EDE"/>
<path d="M95.3651 119C97.5352 119 99.2945 120.759 99.2945 122.93C99.2945 125.1 97.5352 126.859 95.3651 126.859C93.1949 126.859 91.4356 125.1 91.4356 122.93C91.4356 120.759 93.1949 119 95.3651 119Z" fill="#724EDE"/>
<path d="M106.217 119C108.388 119 110.147 120.759 110.147 122.93C110.147 125.1 108.388 126.859 106.217 126.859C104.047 126.859 102.288 125.1 102.288 122.93C102.288 120.759 104.047 119 106.217 119Z" fill="#724EDE"/>
<path d="M117.07 119C119.241 119 121 120.759 121 122.93C121 125.1 119.241 126.859 117.07 126.859C114.9 126.859 113.141 125.1 113.141 122.93C113.141 120.759 114.9 119 117.07 119Z" fill="#724EDE"/>
</g>
<defs>
<clipPath id="clip0_1_156">
<rect width="183" height="151" fill="white"/>
</clipPath>
</defs>
</svg>
