<svg width="86" height="69" viewBox="0 0 86 69" fill="none" xmlns="http://www.w3.org/2000/svg">
<g clip-path="url(#clip0_5_2)">
<path d="M83.6499 10.62C76.3299 10.98 70.5699 13.02 66.3699 16.74C62.2899 20.46 60.1299 25.08 59.8899 30.6C61.0899 30 62.29 29.58 63.49 29.34C64.81 28.98 66.0699 28.8 67.2699 28.8C72.7899 28.8 77.11 30.66 80.2299 34.38C83.4699 38.1 85.0899 42.6 85.0899 47.88C85.0899 53.76 83.3499 58.62 79.8699 62.46C76.5099 66.18 71.8299 68.04 65.8299 68.04C60.0699 68.04 55.21 65.94 51.25 61.74C47.41 57.54 45.49 51.3 45.49 43.02C45.49 32.94 47.1099 24.78 50.3499 18.54C53.5899 12.3 58.0899 7.73998 63.8499 4.85998C69.6099 1.97998 76.2099 0.479983 83.6499 0.359985V10.62ZM38.65 10.62C31.33 10.98 25.57 13.02 21.37 16.74C17.29 20.46 15.13 25.08 14.89 30.6C16.09 30 17.29 29.58 18.49 29.34C19.81 28.98 21.07 28.8 22.27 28.8C27.79 28.8 32.11 30.66 35.2299 34.38C38.4699 38.1 40.09 42.6 40.09 47.88C40.09 53.76 38.3499 58.62 34.8699 62.46C31.5099 66.18 26.83 68.04 20.83 68.04C15.07 68.04 10.21 65.94 6.24999 61.74C2.40999 57.54 0.48999 51.3 0.48999 43.02C0.48999 32.94 2.10999 24.78 5.34999 18.54C8.58999 12.3 13.09 7.73998 18.85 4.85998C24.61 1.97998 31.21 0.479983 38.65 0.359985V10.62Z" fill="url(#paint0_linear_5_2)"/>
</g>
<defs>
<linearGradient id="paint0_linear_5_2" x1="36.7155" y1="-51" x2="99.6925" y2="84.3363" gradientUnits="userSpaceOnUse">
<stop stop-color="#724EDE"/>
<stop offset="0.9999" stop-color="#724EDE"/>
<stop offset="1" stop-color="#001412"/>
</linearGradient>
<clipPath id="clip0_5_2">
<rect width="86" height="69" fill="white"/>
</clipPath>
</defs>
</svg>
