<svg width="503" height="457" viewBox="0 0 503 457" fill="none" xmlns="http://www.w3.org/2000/svg">
<g clip-path="url(#clip0_1_2)">
<path d="M282 20H15C6.71573 20 0 26.7157 0 35V276C0 284.284 6.71573 291 15 291H282C290.284 291 297 284.284 297 276V35C297 26.7157 290.284 20 282 20Z" fill="#884EDE" fill-opacity="0.05"/>
<path d="M392 102H125C116.716 102 110 108.716 110 117V358C110 366.284 116.716 373 125 373H392C400.284 373 407 366.284 407 358V117C407 108.716 400.284 102 392 102Z" fill="#884EDE" fill-opacity="0.05"/>
<path d="M485 186H218C209.716 186 203 192.716 203 201V442C203 450.284 209.716 457 218 457H485C493.284 457 500 450.284 500 442V201C500 192.716 493.284 186 485 186Z" fill="#884EDE" fill-opacity="0.05"/>
<path d="M64.9295 295.951C67.0996 295.951 68.8589 297.71 68.8589 299.881C68.8589 302.051 67.0996 303.81 64.9295 303.81C62.7593 303.81 61 302.051 61 299.881C61 297.71 62.7593 295.951 64.9295 295.951Z" fill="#884EDE"/>
<path d="M75.7822 295.951C77.9524 295.951 79.7117 297.71 79.7117 299.881C79.7117 302.051 77.9524 303.81 75.7822 303.81C73.6121 303.81 71.8528 302.051 71.8528 299.881C71.8528 297.71 73.6121 295.951 75.7822 295.951Z" fill="#884EDE"/>
<path d="M86.635 295.951C88.8051 295.951 90.5644 297.71 90.5644 299.881C90.5644 302.051 88.8051 303.81 86.635 303.81C84.4648 303.81 82.7055 302.051 82.7055 299.881C82.7055 297.71 84.4648 295.951 86.635 295.951Z" fill="#884EDE"/>
<path d="M96.3651 295.951C98.5352 295.951 100.295 297.71 100.295 299.881C100.295 302.051 98.5352 303.81 96.3651 303.81C94.1949 303.81 92.4356 302.051 92.4356 299.881C92.4356 297.71 94.1949 295.951 96.3651 295.951Z" fill="#884EDE"/>
<path d="M107.217 295.951C109.388 295.951 111.147 297.71 111.147 299.881C111.147 302.051 109.388 303.81 107.217 303.81C105.047 303.81 103.288 302.051 103.288 299.881C103.288 297.71 105.047 295.951 107.217 295.951Z" fill="#884EDE"/>
<path d="M118.07 295.951C120.241 295.951 122 297.71 122 299.881C122 302.051 120.241 303.81 118.07 303.81C115.9 303.81 114.141 302.051 114.141 299.881C114.141 297.71 115.9 295.951 118.07 295.951Z" fill="#884EDE"/>
<path d="M64.9295 283.975C67.0996 283.975 68.8589 285.734 68.8589 287.905C68.8589 290.075 67.0996 291.834 64.9295 291.834C62.7593 291.834 61 290.075 61 287.905C61 285.734 62.7593 283.975 64.9295 283.975Z" fill="#884EDE"/>
<path d="M75.7822 283.975C77.9524 283.975 79.7117 285.734 79.7117 287.905C79.7117 290.075 77.9524 291.834 75.7822 291.834C73.6121 291.834 71.8528 290.075 71.8528 287.905C71.8528 285.734 73.6121 283.975 75.7822 283.975Z" fill="#884EDE"/>
<path d="M86.635 283.975C88.8051 283.975 90.5644 285.734 90.5644 287.905C90.5644 290.075 88.8051 291.834 86.635 291.834C84.4648 291.834 82.7055 290.075 82.7055 287.905C82.7055 285.734 84.4648 283.975 86.635 283.975Z" fill="#884EDE"/>
<path d="M96.3651 283.975C98.5352 283.975 100.295 285.734 100.295 287.905C100.295 290.075 98.5352 291.834 96.3651 291.834C94.1949 291.834 92.4356 290.075 92.4356 287.905C92.4356 285.734 94.1949 283.975 96.3651 283.975Z" fill="#884EDE"/>
<path d="M107.217 283.975C109.388 283.975 111.147 285.734 111.147 287.905C111.147 290.075 109.388 291.834 107.217 291.834C105.047 291.834 103.288 290.075 103.288 287.905C103.288 285.734 105.047 283.975 107.217 283.975Z" fill="#884EDE"/>
<path d="M118.07 283.975C120.241 283.975 122 285.734 122 287.905C122 290.075 120.241 291.834 118.07 291.834C115.9 291.834 114.141 290.075 114.141 287.905C114.141 285.734 115.9 283.975 118.07 283.975Z" fill="#884EDE"/>
<path d="M64.9295 272C67.0996 272 68.8589 273.759 68.8589 275.93C68.8589 278.1 67.0996 279.859 64.9295 279.859C62.7593 279.859 61 278.1 61 275.93C61 273.759 62.7593 272 64.9295 272Z" fill="#884EDE"/>
<path d="M75.7822 272C77.9524 272 79.7117 273.759 79.7117 275.93C79.7117 278.1 77.9524 279.859 75.7822 279.859C73.6121 279.859 71.8528 278.1 71.8528 275.93C71.8528 273.759 73.6121 272 75.7822 272Z" fill="#884EDE"/>
<path d="M86.635 272C88.8051 272 90.5644 273.759 90.5644 275.93C90.5644 278.1 88.8051 279.859 86.635 279.859C84.4648 279.859 82.7055 278.1 82.7055 275.93C82.7055 273.759 84.4648 272 86.635 272Z" fill="#884EDE"/>
<path d="M96.3651 272C98.5352 272 100.295 273.759 100.295 275.93C100.295 278.1 98.5352 279.859 96.3651 279.859C94.1949 279.859 92.4356 278.1 92.4356 275.93C92.4356 273.759 94.1949 272 96.3651 272Z" fill="#884EDE"/>
<path d="M107.217 272C109.388 272 111.147 273.759 111.147 275.93C111.147 278.1 109.388 279.859 107.217 279.859C105.047 279.859 103.288 278.1 103.288 275.93C103.288 273.759 105.047 272 107.217 272Z" fill="#884EDE"/>
<path d="M118.07 272C120.241 272 122 273.759 122 275.93C122 278.1 120.241 279.859 118.07 279.859C115.9 279.859 114.141 278.1 114.141 275.93C114.141 273.759 115.9 272 118.07 272Z" fill="#884EDE"/>
<path d="M3.92945 355.951C6.09963 355.951 7.8589 357.71 7.8589 359.881C7.8589 362.051 6.09963 363.81 3.92945 363.81C1.75927 363.81 0 362.051 0 359.881C0 357.71 1.75927 355.951 3.92945 355.951Z" fill="#884EDE"/>
<path d="M14.7822 355.951C16.9524 355.951 18.7117 357.71 18.7117 359.881C18.7117 362.051 16.9524 363.81 14.7822 363.81C12.6121 363.81 10.8528 362.051 10.8528 359.881C10.8528 357.71 12.6121 355.951 14.7822 355.951Z" fill="#884EDE"/>
<path d="M25.635 355.951C27.8051 355.951 29.5644 357.71 29.5644 359.881C29.5644 362.051 27.8051 363.81 25.635 363.81C23.4648 363.81 21.7055 362.051 21.7055 359.881C21.7055 357.71 23.4648 355.951 25.635 355.951Z" fill="#884EDE"/>
<path d="M35.3651 355.951C37.5352 355.951 39.2945 357.71 39.2945 359.881C39.2945 362.051 37.5352 363.81 35.3651 363.81C33.1949 363.81 31.4356 362.051 31.4356 359.881C31.4356 357.71 33.1949 355.951 35.3651 355.951Z" fill="#884EDE"/>
<path d="M46.2177 355.951C48.3879 355.951 50.1472 357.71 50.1472 359.881C50.1472 362.051 48.3879 363.81 46.2177 363.81C44.0476 363.81 42.2883 362.051 42.2883 359.881C42.2883 357.71 44.0476 355.951 46.2177 355.951Z" fill="#884EDE"/>
<path d="M57.0705 355.951C59.2407 355.951 61 357.71 61 359.881C61 362.051 59.2407 363.81 57.0705 363.81C54.9004 363.81 53.1411 362.051 53.1411 359.881C53.1411 357.71 54.9004 355.951 57.0705 355.951Z" fill="#884EDE"/>
<path d="M3.92945 343.975C6.09963 343.975 7.8589 345.734 7.8589 347.905C7.8589 350.075 6.09963 351.834 3.92945 351.834C1.75927 351.834 0 350.075 0 347.905C0 345.734 1.75927 343.975 3.92945 343.975Z" fill="#884EDE"/>
<path d="M14.7822 343.975C16.9524 343.975 18.7117 345.734 18.7117 347.905C18.7117 350.075 16.9524 351.834 14.7822 351.834C12.6121 351.834 10.8528 350.075 10.8528 347.905C10.8528 345.734 12.6121 343.975 14.7822 343.975Z" fill="#884EDE"/>
<path d="M25.635 343.975C27.8051 343.975 29.5644 345.734 29.5644 347.905C29.5644 350.075 27.8051 351.834 25.635 351.834C23.4648 351.834 21.7055 350.075 21.7055 347.905C21.7055 345.734 23.4648 343.975 25.635 343.975Z" fill="#884EDE"/>
<path d="M35.3651 343.975C37.5352 343.975 39.2945 345.734 39.2945 347.905C39.2945 350.075 37.5352 351.834 35.3651 351.834C33.1949 351.834 31.4356 350.075 31.4356 347.905C31.4356 345.734 33.1949 343.975 35.3651 343.975Z" fill="#884EDE"/>
<path d="M46.2177 343.975C48.3879 343.975 50.1472 345.734 50.1472 347.905C50.1472 350.075 48.3879 351.834 46.2177 351.834C44.0476 351.834 42.2883 350.075 42.2883 347.905C42.2883 345.734 44.0476 343.975 46.2177 343.975Z" fill="#884EDE"/>
<path d="M57.0705 343.975C59.2407 343.975 61 345.734 61 347.905C61 350.075 59.2407 351.834 57.0705 351.834C54.9004 351.834 53.1411 350.075 53.1411 347.905C53.1411 345.734 54.9004 343.975 57.0705 343.975Z" fill="#884EDE"/>
<path d="M3.92945 332C6.09963 332 7.8589 333.759 7.8589 335.93C7.8589 338.1 6.09963 339.859 3.92945 339.859C1.75927 339.859 0 338.1 0 335.93C0 333.759 1.75927 332 3.92945 332Z" fill="#884EDE"/>
<path d="M14.7822 332C16.9524 332 18.7117 333.759 18.7117 335.93C18.7117 338.1 16.9524 339.859 14.7822 339.859C12.6121 339.859 10.8528 338.1 10.8528 335.93C10.8528 333.759 12.6121 332 14.7822 332Z" fill="#884EDE"/>
<path d="M25.635 332C27.8051 332 29.5644 333.759 29.5644 335.93C29.5644 338.1 27.8051 339.859 25.635 339.859C23.4648 339.859 21.7055 338.1 21.7055 335.93C21.7055 333.759 23.4648 332 25.635 332Z" fill="#884EDE"/>
<path d="M35.3651 332C37.5352 332 39.2945 333.759 39.2945 335.93C39.2945 338.1 37.5352 339.859 35.3651 339.859C33.1949 339.859 31.4356 338.1 31.4356 335.93C31.4356 333.759 33.1949 332 35.3651 332Z" fill="#884EDE"/>
<path d="M46.2177 332C48.3879 332 50.1472 333.759 50.1472 335.93C50.1472 338.1 48.3879 339.859 46.2177 339.859C44.0476 339.859 42.2883 338.1 42.2883 335.93C42.2883 333.759 44.0476 332 46.2177 332Z" fill="#884EDE"/>
<path d="M57.0705 332C59.2407 332 61 333.759 61 335.93C61 338.1 59.2407 339.859 57.0705 339.859C54.9004 339.859 53.1411 338.1 53.1411 335.93C53.1411 333.759 54.9004 332 57.0705 332Z" fill="#884EDE"/>
<path d="M125.929 355.951C128.1 355.951 129.859 357.71 129.859 359.881C129.859 362.051 128.1 363.81 125.929 363.81C123.759 363.81 122 362.051 122 359.881C122 357.71 123.759 355.951 125.929 355.951Z" fill="#884EDE"/>
<path d="M136.782 355.951C138.953 355.951 140.712 357.71 140.712 359.881C140.712 362.051 138.953 363.81 136.782 363.81C134.612 363.81 132.853 362.051 132.853 359.881C132.853 357.71 134.612 355.951 136.782 355.951Z" fill="#884EDE"/>
<path d="M147.635 355.951C149.806 355.951 151.565 357.71 151.565 359.881C151.565 362.051 149.806 363.81 147.635 363.81C145.465 363.81 143.706 362.051 143.706 359.881C143.706 357.71 145.465 355.951 147.635 355.951Z" fill="#884EDE"/>
<path d="M157.365 355.951C159.536 355.951 161.295 357.71 161.295 359.881C161.295 362.051 159.536 363.81 157.365 363.81C155.195 363.81 153.436 362.051 153.436 359.881C153.436 357.71 155.195 355.951 157.365 355.951Z" fill="#884EDE"/>
<path d="M168.217 355.951C170.388 355.951 172.147 357.71 172.147 359.881C172.147 362.051 170.388 363.81 168.217 363.81C166.047 363.81 164.288 362.051 164.288 359.881C164.288 357.71 166.047 355.951 168.217 355.951Z" fill="#884EDE"/>
<path d="M179.07 355.951C181.241 355.951 183 357.71 183 359.881C183 362.051 181.241 363.81 179.07 363.81C176.9 363.81 175.141 362.051 175.141 359.881C175.141 357.71 176.9 355.951 179.07 355.951Z" fill="#884EDE"/>
<path d="M125.929 343.975C128.1 343.975 129.859 345.734 129.859 347.905C129.859 350.075 128.1 351.834 125.929 351.834C123.759 351.834 122 350.075 122 347.905C122 345.734 123.759 343.975 125.929 343.975Z" fill="#884EDE"/>
<path d="M136.782 343.975C138.953 343.975 140.712 345.734 140.712 347.905C140.712 350.075 138.953 351.834 136.782 351.834C134.612 351.834 132.853 350.075 132.853 347.905C132.853 345.734 134.612 343.975 136.782 343.975Z" fill="#884EDE"/>
<path d="M147.635 343.975C149.806 343.975 151.565 345.734 151.565 347.905C151.565 350.075 149.806 351.834 147.635 351.834C145.465 351.834 143.706 350.075 143.706 347.905C143.706 345.734 145.465 343.975 147.635 343.975Z" fill="#884EDE"/>
<path d="M157.365 343.975C159.536 343.975 161.295 345.734 161.295 347.905C161.295 350.075 159.536 351.834 157.365 351.834C155.195 351.834 153.436 350.075 153.436 347.905C153.436 345.734 155.195 343.975 157.365 343.975Z" fill="#884EDE"/>
<path d="M168.217 343.975C170.388 343.975 172.147 345.734 172.147 347.905C172.147 350.075 170.388 351.834 168.217 351.834C166.047 351.834 164.288 350.075 164.288 347.905C164.288 345.734 166.047 343.975 168.217 343.975Z" fill="#884EDE"/>
<path d="M179.07 343.975C181.241 343.975 183 345.734 183 347.905C183 350.075 181.241 351.834 179.07 351.834C176.9 351.834 175.141 350.075 175.141 347.905C175.141 345.734 176.9 343.975 179.07 343.975Z" fill="#884EDE"/>
<path d="M125.929 332C128.1 332 129.859 333.759 129.859 335.93C129.859 338.1 128.1 339.859 125.929 339.859C123.759 339.859 122 338.1 122 335.93C122 333.759 123.759 332 125.929 332Z" fill="#884EDE"/>
<path d="M136.782 332C138.953 332 140.712 333.759 140.712 335.93C140.712 338.1 138.953 339.859 136.782 339.859C134.612 339.859 132.853 338.1 132.853 335.93C132.853 333.759 134.612 332 136.782 332Z" fill="#884EDE"/>
<path d="M147.635 332C149.806 332 151.565 333.759 151.565 335.93C151.565 338.1 149.806 339.859 147.635 339.859C145.465 339.859 143.706 338.1 143.706 335.93C143.706 333.759 145.465 332 147.635 332Z" fill="#884EDE"/>
<path d="M157.365 332C159.536 332 161.295 333.759 161.295 335.93C161.295 338.1 159.536 339.859 157.365 339.859C155.195 339.859 153.436 338.1 153.436 335.93C153.436 333.759 155.195 332 157.365 332Z" fill="#884EDE"/>
<path d="M168.217 332C170.388 332 172.147 333.759 172.147 335.93C172.147 338.1 170.388 339.859 168.217 339.859C166.047 339.859 164.288 338.1 164.288 335.93C164.288 333.759 166.047 332 168.217 332Z" fill="#884EDE"/>
<path d="M179.07 332C181.241 332 183 333.759 183 335.93C183 338.1 181.241 339.859 179.07 339.859C176.9 339.859 175.141 338.1 175.141 335.93C175.141 333.759 176.9 332 179.07 332Z" fill="#884EDE"/>
<path d="M63.9295 414.951C66.0996 414.951 67.8589 416.71 67.8589 418.881C67.8589 421.051 66.0996 422.81 63.9295 422.81C61.7593 422.81 60 421.051 60 418.881C60 416.71 61.7593 414.951 63.9295 414.951Z" fill="#884EDE"/>
<path d="M74.7822 414.951C76.9524 414.951 78.7117 416.71 78.7117 418.881C78.7117 421.051 76.9524 422.81 74.7822 422.81C72.6121 422.81 70.8528 421.051 70.8528 418.881C70.8528 416.71 72.6121 414.951 74.7822 414.951Z" fill="#884EDE"/>
<path d="M85.635 414.951C87.8051 414.951 89.5644 416.71 89.5644 418.881C89.5644 421.051 87.8051 422.81 85.635 422.81C83.4648 422.81 81.7055 421.051 81.7055 418.881C81.7055 416.71 83.4648 414.951 85.635 414.951Z" fill="#884EDE"/>
<path d="M95.3651 414.951C97.5352 414.951 99.2945 416.71 99.2945 418.881C99.2945 421.051 97.5352 422.81 95.3651 422.81C93.1949 422.81 91.4356 421.051 91.4356 418.881C91.4356 416.71 93.1949 414.951 95.3651 414.951Z" fill="#884EDE"/>
<path d="M106.217 414.951C108.388 414.951 110.147 416.71 110.147 418.881C110.147 421.051 108.388 422.81 106.217 422.81C104.047 422.81 102.288 421.051 102.288 418.881C102.288 416.71 104.047 414.951 106.217 414.951Z" fill="#884EDE"/>
<path d="M117.07 414.951C119.241 414.951 121 416.71 121 418.881C121 421.051 119.241 422.81 117.07 422.81C114.9 422.81 113.141 421.051 113.141 418.881C113.141 416.71 114.9 414.951 117.07 414.951Z" fill="#884EDE"/>
<path d="M63.9295 402.975C66.0996 402.975 67.8589 404.734 67.8589 406.905C67.8589 409.075 66.0996 410.834 63.9295 410.834C61.7593 410.834 60 409.075 60 406.905C60 404.734 61.7593 402.975 63.9295 402.975Z" fill="#884EDE"/>
<path d="M74.7822 402.975C76.9524 402.975 78.7117 404.734 78.7117 406.905C78.7117 409.075 76.9524 410.834 74.7822 410.834C72.6121 410.834 70.8528 409.075 70.8528 406.905C70.8528 404.734 72.6121 402.975 74.7822 402.975Z" fill="#884EDE"/>
<path d="M85.635 402.975C87.8051 402.975 89.5644 404.734 89.5644 406.905C89.5644 409.075 87.8051 410.834 85.635 410.834C83.4648 410.834 81.7055 409.075 81.7055 406.905C81.7055 404.734 83.4648 402.975 85.635 402.975Z" fill="#884EDE"/>
<path d="M95.3651 402.975C97.5352 402.975 99.2945 404.734 99.2945 406.905C99.2945 409.075 97.5352 410.834 95.3651 410.834C93.1949 410.834 91.4356 409.075 91.4356 406.905C91.4356 404.734 93.1949 402.975 95.3651 402.975Z" fill="#884EDE"/>
<path d="M106.217 402.975C108.388 402.975 110.147 404.734 110.147 406.905C110.147 409.075 108.388 410.834 106.217 410.834C104.047 410.834 102.288 409.075 102.288 406.905C102.288 404.734 104.047 402.975 106.217 402.975Z" fill="#884EDE"/>
<path d="M117.07 402.975C119.241 402.975 121 404.734 121 406.905C121 409.075 119.241 410.834 117.07 410.834C114.9 410.834 113.141 409.075 113.141 406.905C113.141 404.734 114.9 402.975 117.07 402.975Z" fill="#884EDE"/>
<path d="M63.9295 391C66.0996 391 67.8589 392.759 67.8589 394.93C67.8589 397.1 66.0996 398.859 63.9295 398.859C61.7593 398.859 60 397.1 60 394.93C60 392.759 61.7593 391 63.9295 391Z" fill="#884EDE"/>
<path d="M74.7822 391C76.9524 391 78.7117 392.759 78.7117 394.93C78.7117 397.1 76.9524 398.859 74.7822 398.859C72.6121 398.859 70.8528 397.1 70.8528 394.93C70.8528 392.759 72.6121 391 74.7822 391Z" fill="#884EDE"/>
<path d="M85.635 391C87.8051 391 89.5644 392.759 89.5644 394.93C89.5644 397.1 87.8051 398.859 85.635 398.859C83.4648 398.859 81.7055 397.1 81.7055 394.93C81.7055 392.759 83.4648 391 85.635 391Z" fill="#884EDE"/>
<path d="M95.3651 391C97.5352 391 99.2945 392.759 99.2945 394.93C99.2945 397.1 97.5352 398.859 95.3651 398.859C93.1949 398.859 91.4356 397.1 91.4356 394.93C91.4356 392.759 93.1949 391 95.3651 391Z" fill="#884EDE"/>
<path d="M106.217 391C108.388 391 110.147 392.759 110.147 394.93C110.147 397.1 108.388 398.859 106.217 398.859C104.047 398.859 102.288 397.1 102.288 394.93C102.288 392.759 104.047 391 106.217 391Z" fill="#884EDE"/>
<path d="M117.07 391C119.241 391 121 392.759 121 394.93C121 397.1 119.241 398.859 117.07 398.859C114.9 398.859 113.141 397.1 113.141 394.93C113.141 392.759 114.9 391 117.07 391Z" fill="#884EDE"/>
<path d="M384.929 23.9509C387.1 23.9509 388.859 25.7102 388.859 27.8803C388.859 30.0505 387.1 31.8098 384.929 31.8098C382.759 31.8098 381 30.0505 381 27.8803C381 25.7102 382.759 23.9509 384.929 23.9509Z" fill="#884EDE"/>
<path d="M395.782 23.9509C397.953 23.9509 399.712 25.7102 399.712 27.8803C399.712 30.0505 397.953 31.8098 395.782 31.8098C393.612 31.8098 391.853 30.0505 391.853 27.8803C391.853 25.7102 393.612 23.9509 395.782 23.9509Z" fill="#884EDE"/>
<path d="M406.635 23.9509C408.806 23.9509 410.565 25.7102 410.565 27.8803C410.565 30.0505 408.806 31.8098 406.635 31.8098C404.465 31.8098 402.706 30.0505 402.706 27.8803C402.706 25.7102 404.465 23.9509 406.635 23.9509Z" fill="#884EDE"/>
<path d="M416.365 23.9509C418.536 23.9509 420.295 25.7102 420.295 27.8803C420.295 30.0505 418.536 31.8098 416.365 31.8098C414.195 31.8098 412.436 30.0505 412.436 27.8803C412.436 25.7102 414.195 23.9509 416.365 23.9509Z" fill="#884EDE"/>
<path d="M427.217 23.9509C429.388 23.9509 431.147 25.7102 431.147 27.8803C431.147 30.0505 429.388 31.8098 427.217 31.8098C425.047 31.8098 423.288 30.0505 423.288 27.8803C423.288 25.7102 425.047 23.9509 427.217 23.9509Z" fill="#884EDE"/>
<path d="M438.07 23.9509C440.241 23.9509 442 25.7102 442 27.8803C442 30.0505 440.241 31.8098 438.07 31.8098C435.9 31.8098 434.141 30.0505 434.141 27.8803C434.141 25.7102 435.9 23.9509 438.07 23.9509Z" fill="#884EDE"/>
<path d="M384.929 11.9755C387.1 11.9755 388.859 13.7348 388.859 15.9049C388.859 18.0751 387.1 19.8344 384.929 19.8344C382.759 19.8344 381 18.0751 381 15.9049C381 13.7348 382.759 11.9755 384.929 11.9755Z" fill="#884EDE"/>
<path d="M395.782 11.9755C397.953 11.9755 399.712 13.7348 399.712 15.9049C399.712 18.0751 397.953 19.8344 395.782 19.8344C393.612 19.8344 391.853 18.0751 391.853 15.9049C391.853 13.7348 393.612 11.9755 395.782 11.9755Z" fill="#884EDE"/>
<path d="M406.635 11.9755C408.806 11.9755 410.565 13.7348 410.565 15.9049C410.565 18.0751 408.806 19.8344 406.635 19.8344C404.465 19.8344 402.706 18.0751 402.706 15.9049C402.706 13.7348 404.465 11.9755 406.635 11.9755Z" fill="#884EDE"/>
<path d="M416.365 11.9755C418.536 11.9755 420.295 13.7348 420.295 15.9049C420.295 18.0751 418.536 19.8344 416.365 19.8344C414.195 19.8344 412.436 18.0751 412.436 15.9049C412.436 13.7348 414.195 11.9755 416.365 11.9755Z" fill="#884EDE"/>
<path d="M427.217 11.9755C429.388 11.9755 431.147 13.7348 431.147 15.9049C431.147 18.0751 429.388 19.8344 427.217 19.8344C425.047 19.8344 423.288 18.0751 423.288 15.9049C423.288 13.7348 425.047 11.9755 427.217 11.9755Z" fill="#884EDE"/>
<path d="M438.07 11.9755C440.241 11.9755 442 13.7348 442 15.9049C442 18.0751 440.241 19.8344 438.07 19.8344C435.9 19.8344 434.141 18.0751 434.141 15.9049C434.141 13.7348 435.9 11.9755 438.07 11.9755Z" fill="#884EDE"/>
<path d="M384.929 -1.33514e-05C387.1 -1.33514e-05 388.859 1.75926 388.859 3.92944C388.859 6.09961 387.1 7.85889 384.929 7.85889C382.759 7.85889 381 6.09961 381 3.92944C381 1.75926 382.759 -1.33514e-05 384.929 -1.33514e-05Z" fill="#884EDE"/>
<path d="M395.782 -1.33514e-05C397.953 -1.33514e-05 399.712 1.75926 399.712 3.92944C399.712 6.09961 397.953 7.85889 395.782 7.85889C393.612 7.85889 391.853 6.09961 391.853 3.92944C391.853 1.75926 393.612 -1.33514e-05 395.782 -1.33514e-05Z" fill="#884EDE"/>
<path d="M406.635 -1.33514e-05C408.806 -1.33514e-05 410.565 1.75926 410.565 3.92944C410.565 6.09961 408.806 7.85889 406.635 7.85889C404.465 7.85889 402.706 6.09961 402.706 3.92944C402.706 1.75926 404.465 -1.33514e-05 406.635 -1.33514e-05Z" fill="#884EDE"/>
<path d="M416.365 -1.33514e-05C418.536 -1.33514e-05 420.295 1.75926 420.295 3.92944C420.295 6.09961 418.536 7.85889 416.365 7.85889C414.195 7.85889 412.436 6.09961 412.436 3.92944C412.436 1.75926 414.195 -1.33514e-05 416.365 -1.33514e-05Z" fill="#884EDE"/>
<path d="M427.217 -1.33514e-05C429.388 -1.33514e-05 431.147 1.75926 431.147 3.92944C431.147 6.09961 429.388 7.85889 427.217 7.85889C425.047 7.85889 423.288 6.09961 423.288 3.92944C423.288 1.75926 425.047 -1.33514e-05 427.217 -1.33514e-05Z" fill="#884EDE"/>
<path d="M438.07 -1.33514e-05C440.241 -1.33514e-05 442 1.75926 442 3.92944C442 6.09961 440.241 7.85889 438.07 7.85889C435.9 7.85889 434.141 6.09961 434.141 3.92944C434.141 1.75926 435.9 -1.33514e-05 438.07 -1.33514e-05Z" fill="#884EDE"/>
<path d="M323.929 83.9509C326.1 83.9509 327.859 85.7102 327.859 87.8803C327.859 90.0505 326.1 91.8098 323.929 91.8098C321.759 91.8098 320 90.0505 320 87.8803C320 85.7102 321.759 83.9509 323.929 83.9509Z" fill="#884EDE"/>
<path d="M334.782 83.9509C336.953 83.9509 338.712 85.7102 338.712 87.8803C338.712 90.0505 336.953 91.8098 334.782 91.8098C332.612 91.8098 330.853 90.0505 330.853 87.8803C330.853 85.7102 332.612 83.9509 334.782 83.9509Z" fill="#884EDE"/>
<path d="M345.635 83.9509C347.806 83.9509 349.565 85.7102 349.565 87.8803C349.565 90.0505 347.806 91.8098 345.635 91.8098C343.465 91.8098 341.706 90.0505 341.706 87.8803C341.706 85.7102 343.465 83.9509 345.635 83.9509Z" fill="#884EDE"/>
<path d="M355.365 83.9509C357.536 83.9509 359.295 85.7102 359.295 87.8803C359.295 90.0505 357.536 91.8098 355.365 91.8098C353.195 91.8098 351.436 90.0505 351.436 87.8803C351.436 85.7102 353.195 83.9509 355.365 83.9509Z" fill="#884EDE"/>
<path d="M366.217 83.9509C368.388 83.9509 370.147 85.7102 370.147 87.8803C370.147 90.0505 368.388 91.8098 366.217 91.8098C364.047 91.8098 362.288 90.0505 362.288 87.8803C362.288 85.7102 364.047 83.9509 366.217 83.9509Z" fill="#884EDE"/>
<path d="M377.07 83.9509C379.241 83.9509 381 85.7102 381 87.8803C381 90.0505 379.241 91.8098 377.07 91.8098C374.9 91.8098 373.141 90.0505 373.141 87.8803C373.141 85.7102 374.9 83.9509 377.07 83.9509Z" fill="#884EDE"/>
<path d="M323.929 71.9755C326.1 71.9755 327.859 73.7348 327.859 75.9049C327.859 78.0751 326.1 79.8344 323.929 79.8344C321.759 79.8344 320 78.0751 320 75.9049C320 73.7348 321.759 71.9755 323.929 71.9755Z" fill="#884EDE"/>
<path d="M334.782 71.9755C336.953 71.9755 338.712 73.7348 338.712 75.9049C338.712 78.0751 336.953 79.8344 334.782 79.8344C332.612 79.8344 330.853 78.0751 330.853 75.9049C330.853 73.7348 332.612 71.9755 334.782 71.9755Z" fill="#884EDE"/>
<path d="M345.635 71.9755C347.806 71.9755 349.565 73.7348 349.565 75.9049C349.565 78.0751 347.806 79.8344 345.635 79.8344C343.465 79.8344 341.706 78.0751 341.706 75.9049C341.706 73.7348 343.465 71.9755 345.635 71.9755Z" fill="#884EDE"/>
<path d="M355.365 71.9755C357.536 71.9755 359.295 73.7348 359.295 75.9049C359.295 78.0751 357.536 79.8344 355.365 79.8344C353.195 79.8344 351.436 78.0751 351.436 75.9049C351.436 73.7348 353.195 71.9755 355.365 71.9755Z" fill="#884EDE"/>
<path d="M366.217 71.9755C368.388 71.9755 370.147 73.7348 370.147 75.9049C370.147 78.0751 368.388 79.8344 366.217 79.8344C364.047 79.8344 362.288 78.0751 362.288 75.9049C362.288 73.7348 364.047 71.9755 366.217 71.9755Z" fill="#884EDE"/>
<path d="M377.07 71.9755C379.241 71.9755 381 73.7348 381 75.9049C381 78.0751 379.241 79.8344 377.07 79.8344C374.9 79.8344 373.141 78.0751 373.141 75.9049C373.141 73.7348 374.9 71.9755 377.07 71.9755Z" fill="#884EDE"/>
<path d="M323.929 60C326.1 60 327.859 61.7593 327.859 63.9295C327.859 66.0996 326.1 67.8589 323.929 67.8589C321.759 67.8589 320 66.0996 320 63.9295C320 61.7593 321.759 60 323.929 60Z" fill="#884EDE"/>
<path d="M334.782 60C336.953 60 338.712 61.7593 338.712 63.9295C338.712 66.0996 336.953 67.8589 334.782 67.8589C332.612 67.8589 330.853 66.0996 330.853 63.9295C330.853 61.7593 332.612 60 334.782 60Z" fill="#884EDE"/>
<path d="M345.635 60C347.806 60 349.565 61.7593 349.565 63.9295C349.565 66.0996 347.806 67.8589 345.635 67.8589C343.465 67.8589 341.706 66.0996 341.706 63.9295C341.706 61.7593 343.465 60 345.635 60Z" fill="#884EDE"/>
<path d="M355.365 60C357.536 60 359.295 61.7593 359.295 63.9295C359.295 66.0996 357.536 67.8589 355.365 67.8589C353.195 67.8589 351.436 66.0996 351.436 63.9295C351.436 61.7593 353.195 60 355.365 60Z" fill="#884EDE"/>
<path d="M366.217 60C368.388 60 370.147 61.7593 370.147 63.9295C370.147 66.0996 368.388 67.8589 366.217 67.8589C364.047 67.8589 362.288 66.0996 362.288 63.9295C362.288 61.7593 364.047 60 366.217 60Z" fill="#884EDE"/>
<path d="M377.07 60C379.241 60 381 61.7593 381 63.9295C381 66.0996 379.241 67.8589 377.07 67.8589C374.9 67.8589 373.141 66.0996 373.141 63.9295C373.141 61.7593 374.9 60 377.07 60Z" fill="#884EDE"/>
<path d="M445.929 83.9509C448.1 83.9509 449.859 85.7102 449.859 87.8803C449.859 90.0505 448.1 91.8098 445.929 91.8098C443.759 91.8098 442 90.0505 442 87.8803C442 85.7102 443.759 83.9509 445.929 83.9509Z" fill="#884EDE"/>
<path d="M456.782 83.9509C458.953 83.9509 460.712 85.7102 460.712 87.8803C460.712 90.0505 458.953 91.8098 456.782 91.8098C454.612 91.8098 452.853 90.0505 452.853 87.8803C452.853 85.7102 454.612 83.9509 456.782 83.9509Z" fill="#884EDE"/>
<path d="M467.635 83.9509C469.806 83.9509 471.565 85.7102 471.565 87.8803C471.565 90.0505 469.806 91.8098 467.635 91.8098C465.465 91.8098 463.706 90.0505 463.706 87.8803C463.706 85.7102 465.465 83.9509 467.635 83.9509Z" fill="#884EDE"/>
<path d="M477.365 83.9509C479.536 83.9509 481.295 85.7102 481.295 87.8803C481.295 90.0505 479.536 91.8098 477.365 91.8098C475.195 91.8098 473.436 90.0505 473.436 87.8803C473.436 85.7102 475.195 83.9509 477.365 83.9509Z" fill="#884EDE"/>
<path d="M488.217 83.9509C490.388 83.9509 492.147 85.7102 492.147 87.8803C492.147 90.0505 490.388 91.8098 488.217 91.8098C486.047 91.8098 484.288 90.0505 484.288 87.8803C484.288 85.7102 486.047 83.9509 488.217 83.9509Z" fill="#884EDE"/>
<path d="M499.07 83.9509C501.241 83.9509 503 85.7102 503 87.8803C503 90.0505 501.241 91.8098 499.07 91.8098C496.9 91.8098 495.141 90.0505 495.141 87.8803C495.141 85.7102 496.9 83.9509 499.07 83.9509Z" fill="#884EDE"/>
<path d="M445.929 71.9755C448.1 71.9755 449.859 73.7348 449.859 75.9049C449.859 78.0751 448.1 79.8344 445.929 79.8344C443.759 79.8344 442 78.0751 442 75.9049C442 73.7348 443.759 71.9755 445.929 71.9755Z" fill="#884EDE"/>
<path d="M456.782 71.9755C458.953 71.9755 460.712 73.7348 460.712 75.9049C460.712 78.0751 458.953 79.8344 456.782 79.8344C454.612 79.8344 452.853 78.0751 452.853 75.9049C452.853 73.7348 454.612 71.9755 456.782 71.9755Z" fill="#884EDE"/>
<path d="M467.635 71.9755C469.806 71.9755 471.565 73.7348 471.565 75.9049C471.565 78.0751 469.806 79.8344 467.635 79.8344C465.465 79.8344 463.706 78.0751 463.706 75.9049C463.706 73.7348 465.465 71.9755 467.635 71.9755Z" fill="#884EDE"/>
<path d="M477.365 71.9755C479.536 71.9755 481.295 73.7348 481.295 75.9049C481.295 78.0751 479.536 79.8344 477.365 79.8344C475.195 79.8344 473.436 78.0751 473.436 75.9049C473.436 73.7348 475.195 71.9755 477.365 71.9755Z" fill="#884EDE"/>
<path d="M488.217 71.9755C490.388 71.9755 492.147 73.7348 492.147 75.9049C492.147 78.0751 490.388 79.8344 488.217 79.8344C486.047 79.8344 484.288 78.0751 484.288 75.9049C484.288 73.7348 486.047 71.9755 488.217 71.9755Z" fill="#884EDE"/>
<path d="M499.07 71.9755C501.241 71.9755 503 73.7348 503 75.9049C503 78.0751 501.241 79.8344 499.07 79.8344C496.9 79.8344 495.141 78.0751 495.141 75.9049C495.141 73.7348 496.9 71.9755 499.07 71.9755Z" fill="#884EDE"/>
<path d="M445.929 60C448.1 60 449.859 61.7593 449.859 63.9295C449.859 66.0996 448.1 67.8589 445.929 67.8589C443.759 67.8589 442 66.0996 442 63.9295C442 61.7593 443.759 60 445.929 60Z" fill="#884EDE"/>
<path d="M456.782 60C458.953 60 460.712 61.7593 460.712 63.9295C460.712 66.0996 458.953 67.8589 456.782 67.8589C454.612 67.8589 452.853 66.0996 452.853 63.9295C452.853 61.7593 454.612 60 456.782 60Z" fill="#884EDE"/>
<path d="M467.635 60C469.806 60 471.565 61.7593 471.565 63.9295C471.565 66.0996 469.806 67.8589 467.635 67.8589C465.465 67.8589 463.706 66.0996 463.706 63.9295C463.706 61.7593 465.465 60 467.635 60Z" fill="#884EDE"/>
<path d="M477.365 60C479.536 60 481.295 61.7593 481.295 63.9295C481.295 66.0996 479.536 67.8589 477.365 67.8589C475.195 67.8589 473.436 66.0996 473.436 63.9295C473.436 61.7593 475.195 60 477.365 60Z" fill="#884EDE"/>
<path d="M488.217 60C490.388 60 492.147 61.7593 492.147 63.9295C492.147 66.0996 490.388 67.8589 488.217 67.8589C486.047 67.8589 484.288 66.0996 484.288 63.9295C484.288 61.7593 486.047 60 488.217 60Z" fill="#884EDE"/>
<path d="M499.07 60C501.241 60 503 61.7593 503 63.9295C503 66.0996 501.241 67.8589 499.07 67.8589C496.9 67.8589 495.141 66.0996 495.141 63.9295C495.141 61.7593 496.9 60 499.07 60Z" fill="#884EDE"/>
<path d="M383.929 142.951C386.1 142.951 387.859 144.71 387.859 146.881C387.859 149.051 386.1 150.81 383.929 150.81C381.759 150.81 380 149.051 380 146.881C380 144.71 381.759 142.951 383.929 142.951Z" fill="#884EDE"/>
<path d="M394.782 142.951C396.953 142.951 398.712 144.71 398.712 146.881C398.712 149.051 396.953 150.81 394.782 150.81C392.612 150.81 390.853 149.051 390.853 146.881C390.853 144.71 392.612 142.951 394.782 142.951Z" fill="#884EDE"/>
<path d="M405.635 142.951C407.806 142.951 409.565 144.71 409.565 146.881C409.565 149.051 407.806 150.81 405.635 150.81C403.465 150.81 401.706 149.051 401.706 146.881C401.706 144.71 403.465 142.951 405.635 142.951Z" fill="#884EDE"/>
<path d="M415.365 142.951C417.536 142.951 419.295 144.71 419.295 146.881C419.295 149.051 417.536 150.81 415.365 150.81C413.195 150.81 411.436 149.051 411.436 146.881C411.436 144.71 413.195 142.951 415.365 142.951Z" fill="#884EDE"/>
<path d="M426.217 142.951C428.388 142.951 430.147 144.71 430.147 146.881C430.147 149.051 428.388 150.81 426.217 150.81C424.047 150.81 422.288 149.051 422.288 146.881C422.288 144.71 424.047 142.951 426.217 142.951Z" fill="#884EDE"/>
<path d="M437.07 142.951C439.241 142.951 441 144.71 441 146.881C441 149.051 439.241 150.81 437.07 150.81C434.9 150.81 433.141 149.051 433.141 146.881C433.141 144.71 434.9 142.951 437.07 142.951Z" fill="#884EDE"/>
<path d="M383.929 130.975C386.1 130.975 387.859 132.734 387.859 134.905C387.859 137.075 386.1 138.834 383.929 138.834C381.759 138.834 380 137.075 380 134.905C380 132.734 381.759 130.975 383.929 130.975Z" fill="#884EDE"/>
<path d="M394.782 130.975C396.953 130.975 398.712 132.734 398.712 134.905C398.712 137.075 396.953 138.834 394.782 138.834C392.612 138.834 390.853 137.075 390.853 134.905C390.853 132.734 392.612 130.975 394.782 130.975Z" fill="#884EDE"/>
<path d="M405.635 130.975C407.806 130.975 409.565 132.734 409.565 134.905C409.565 137.075 407.806 138.834 405.635 138.834C403.465 138.834 401.706 137.075 401.706 134.905C401.706 132.734 403.465 130.975 405.635 130.975Z" fill="#884EDE"/>
<path d="M415.365 130.975C417.536 130.975 419.295 132.734 419.295 134.905C419.295 137.075 417.536 138.834 415.365 138.834C413.195 138.834 411.436 137.075 411.436 134.905C411.436 132.734 413.195 130.975 415.365 130.975Z" fill="#884EDE"/>
<path d="M426.217 130.975C428.388 130.975 430.147 132.734 430.147 134.905C430.147 137.075 428.388 138.834 426.217 138.834C424.047 138.834 422.288 137.075 422.288 134.905C422.288 132.734 424.047 130.975 426.217 130.975Z" fill="#884EDE"/>
<path d="M437.07 130.975C439.241 130.975 441 132.734 441 134.905C441 137.075 439.241 138.834 437.07 138.834C434.9 138.834 433.141 137.075 433.141 134.905C433.141 132.734 434.9 130.975 437.07 130.975Z" fill="#884EDE"/>
<path d="M383.929 119C386.1 119 387.859 120.759 387.859 122.93C387.859 125.1 386.1 126.859 383.929 126.859C381.759 126.859 380 125.1 380 122.93C380 120.759 381.759 119 383.929 119Z" fill="#884EDE"/>
<path d="M394.782 119C396.953 119 398.712 120.759 398.712 122.93C398.712 125.1 396.953 126.859 394.782 126.859C392.612 126.859 390.853 125.1 390.853 122.93C390.853 120.759 392.612 119 394.782 119Z" fill="#884EDE"/>
<path d="M405.635 119C407.806 119 409.565 120.759 409.565 122.93C409.565 125.1 407.806 126.859 405.635 126.859C403.465 126.859 401.706 125.1 401.706 122.93C401.706 120.759 403.465 119 405.635 119Z" fill="#884EDE"/>
<path d="M415.365 119C417.536 119 419.295 120.759 419.295 122.93C419.295 125.1 417.536 126.859 415.365 126.859C413.195 126.859 411.436 125.1 411.436 122.93C411.436 120.759 413.195 119 415.365 119Z" fill="#884EDE"/>
<path d="M426.217 119C428.388 119 430.147 120.759 430.147 122.93C430.147 125.1 428.388 126.859 426.217 126.859C424.047 126.859 422.288 125.1 422.288 122.93C422.288 120.759 424.047 119 426.217 119Z" fill="#884EDE"/>
<path d="M437.07 119C439.241 119 441 120.759 441 122.93C441 125.1 439.241 126.859 437.07 126.859C434.9 126.859 433.141 125.1 433.141 122.93C433.141 120.759 434.9 119 437.07 119Z" fill="#884EDE"/>
</g>
<defs>
<clipPath id="clip0_1_2">
<rect width="503" height="457" fill="white"/>
</clipPath>
</defs>
</svg>
