<svg width="477" height="433" viewBox="0 0 477 433" fill="none" xmlns="http://www.w3.org/2000/svg">
<g clip-path="url(#clip0_1_229)">
<path d="M282 0H15C6.71573 0 0 6.71573 0 15V256C0 264.284 6.71573 271 15 271H282C290.284 271 297 264.284 297 256V15C297 6.71573 290.284 0 282 0Z" fill="#724EDE" fill-opacity="0.05"/>
<path d="M369 78H102C93.7157 78 87 84.7157 87 93V334C87 342.284 93.7157 349 102 349H369C377.284 349 384 342.284 384 334V93C384 84.7157 377.284 78 369 78Z" fill="#724EDE" fill-opacity="0.05"/>
<path d="M462 162H195C186.716 162 180 168.716 180 177V418C180 426.284 186.716 433 195 433H462C470.284 433 477 426.284 477 418V177C477 168.716 470.284 162 462 162Z" fill="#724EDE" fill-opacity="0.05"/>
</g>
<defs>
<clipPath id="clip0_1_229">
<rect width="477" height="433" fill="white"/>
</clipPath>
</defs>
</svg>
