<svg width="477" height="433" viewBox="0 0 477 433" fill="none" xmlns="http://www.w3.org/2000/svg">
<g clip-path="url(#clip0_1_233)">
<path d="M195 0H462C470.284 0 477 6.71573 477 15V256C477 264.284 470.284 271 462 271H195C186.716 271 180 264.284 180 256V15C180 6.71573 186.716 0 195 0Z" fill="#724EDE" fill-opacity="0.05"/>
<path d="M108 78H375C383.284 78 390 84.7157 390 93V334C390 342.284 383.284 349 375 349H108C99.7157 349 93 342.284 93 334V93C93 84.7157 99.7157 78 108 78Z" fill="#724EDE" fill-opacity="0.05"/>
<path d="M15 162H282C290.284 162 297 168.716 297 177V418C297 426.284 290.284 433 282 433H15C6.71573 433 0 426.284 0 418V177C0 168.716 6.71573 162 15 162Z" fill="#724EDE" fill-opacity="0.05"/>
</g>
<defs>
<clipPath id="clip0_1_233">
<rect width="477" height="433" fill="white"/>
</clipPath>
</defs>
</svg>
